# xmcd CD database file
#
# Track frame offsets:
#	150
#	17850
#	39000
#	63450
#	90000
#	114450
#	134700
#	155700
#	178575
#	199050
#	219600
#	236250
#	257400
#	276450
#
# Disc length: 3936 seconds
#
# Revision: 1
# Processed by: cddbd v1.5.1PL0 Copyright (c) Steve Scherf et al.
# Submitted via: freeDBTagger 0.5
#
DISCID=bf0f5e0e
DTITLE=福山雅治 - Dear - MAGNUM COLLECTION 1999_ Disc 1
DYEAR=1999
DGENRE=rock
TTITLE0=追憶の雨の中
TTITLE1=風をさがしてる(TV Special/'95 Style)
TTITLE2=ただ僕がかわった
TTITLE3=GOOD NIGHT
TTITLE4=約束の丘
TTITLE5=MELODY
TTITLE6=恋人
TTITLE7=遠くへ
TTITLE8=MARCY`S SONG
TTITLE9=IT'S ONLY LOVE
TTITLE10=1985年 FACTORY STREET 夏
TTITLE11=GLOAMING WAY
TTITLE12=明日へのマーチ
TTITLE13=DEAR
EXTD=
EXTT0=
EXTT1=
EXTT2=
EXTT3=
EXTT4=
EXTT5=
EXTT6=
EXTT7=
EXTT8=
EXTT9=
EXTT10=
EXTT11=
EXTT12=
EXTT13=
PLAYORDER=
